<?xml version="1.0" encoding="UTF-8" standalone="no"?>
<svg
   xmlns:dc="http://purl.org/dc/elements/1.1/"
   xmlns:cc="http://creativecommons.org/ns#"
   xmlns:rdf="http://www.w3.org/1999/02/22-rdf-syntax-ns#"
   xmlns:svg="http://www.w3.org/2000/svg"
   xmlns="http://www.w3.org/2000/svg"
   xmlns:sodipodi="http://sodipodi.sourceforge.net/DTD/sodipodi-0.dtd"
   xmlns:inkscape="http://www.inkscape.org/namespaces/inkscape"
   version="1.1"
   id="Wikimedia_Community_Logo"
   width="1000.009"
   height="1000.0109"
   viewBox="0 0 1000.009 1000.0109"
   xml:space="preserve"
   inkscape:version="0.48.2 r9819"
   sodipodi:docname="Wikimedia_Community_Logo_optimized.svg"><metadata
   id="metadata15"><rdf:RDF><cc:Work
       rdf:about=""><dc:format>image/svg+xml</dc:format><dc:type
         rdf:resource="http://purl.org/dc/dcmitype/StillImage" /><dc:title>Wikimedia Community Logo</dc:title></cc:Work></rdf:RDF></metadata><defs
   id="defs13" /><sodipodi:namedview
   pagecolor="#ffffff"
   bordercolor="#666666"
   borderopacity="1"
   objecttolerance="10"
   gridtolerance="10"
   guidetolerance="10"
   inkscape:pageopacity="0"
   inkscape:pageshadow="2"
   inkscape:window-width="1366"
   inkscape:window-height="706"
   id="namedview11"
   showgrid="false"
   inkscape:zoom="0.26222222"
   inkscape:cx="-144.49153"
   inkscape:cy="500.00001"
   inkscape:window-x="-8"
   inkscape:window-y="-8"
   inkscape:window-maximized="1"
   inkscape:current-layer="Wikimedia_Community_Logo"
   fit-margin-top="50"
   fit-margin-left="50"
   fit-margin-right="50"
   fit-margin-bottom="50" />
  <title
   id="title3">Wikimedia Community Logo</title>
  <desc
   id="desc5">For more information see: http://commons.wikimedia.org/wiki/Image:Wikimedia_Community_Logo.svg</desc>
  <rect
   style="color:#000000;fill:#bfcfda;fill-opacity:1;stroke:#000000;stroke-width:0.01949384;stroke-linecap:butt;stroke-linejoin:miter;stroke-miterlimit:10;stroke-opacity:1;stroke-dasharray:none;stroke-dashoffset:0;marker:none;visibility:visible;display:inline;overflow:visible;enable-background:accumulate"
   id="rect2992"
   width="999.86328"
   height="999.86328"
   x="0.0625"
   y="0.08514531"
   rx="1.8004007"
   ry="1.7661726" /><path
   id="Green_globe"
   d="m 366.607,231.29886 c -32.661,16.181 -61.142,37.674 -84.909,62.924 11.84,0.228 23.749,-0.302 35.667,-1.642 13.757,-22.168 30.239,-42.779 49.242,-61.282 z m 28.153,-12.212 c 25.364,-1.196 50.574,0.532 75.13,5.152 8.474,-7.594 16.386,-15.715 23.768,-24.208 -33.043,0.675 -66.42,6.86 -98.898,19.056 z m -15.579,27.536 c -13.104,12.889 -24.891,26.863 -35.327,41.689 15.834,-3.385 31.581,-8.264 47.066,-14.626 l -11.739,-27.063 z m 18.373,-7.902 11.615,26.777 c 14.254,-7.089 27.614,-15.331 40.072,-24.468 -17.018,-2.214 -34.312,-3.026 -51.687,-2.309 z m 121.489,-38.12 c -7.869,10.154 -16.425,19.86 -25.65,28.976 45.241,12.038 87.572,33.792 123.718,63.921 13.41,-16.229 25.537,-33.375 36.353,-51.263 -40.703,-24.182 -86.842,-38.55 -134.421,-41.634 z m -254.012,112.841 c -29.58,37.333 -49.817,81.147 -59.177,127.587 20.742,4.009 41.837,6.532 63.109,7.438 2.109,-47.13 14.711,-93.162 36.389,-134.734 -13.497,0.84 -26.98,0.721 -40.321,-0.291 z m 210.665,-67.809 c -17.609,14.756 -37.186,27.599 -58.593,38.156 l 53.599,123.563 c 51.961,-24.631 96.809,-58.532 133.386,-98.804 -37.17,-30.977 -81.339,-52.504 -128.392,-62.915 z m -146.498,65.591 c -24.187,41.853 -38.191,89.083 -40.381,137.624 54.664,-0.227 110.157,-10.964 163.61,-33.364 l -53.549,-123.449 c -22.847,9.419 -46.226,15.78 -69.68,19.189 z m 341.087,-58.164 c -11.363,18.751 -24.137,36.705 -38.221,53.708 30.282,28.655 55.362,63.708 72.955,104.267 3.636,8.38 6.899,16.826 9.763,25.332 20.221,-20.811 38.791,-42.933 55.613,-66.226 -23.338,-48.688 -58.303,-88.322 -100.11,-117.081 z m -467.742,207.664 c -6.693,50.225 -0.743,102.722 19.734,152.764 28.519,3.132 57.377,4.261 86.35,3.216 -4.962,-8.954 -9.532,-18.205 -13.688,-27.785 -17.021,-39.242 -25.481,-80.079 -26.224,-120.45 -22.3,-0.93 -44.422,-3.558 -66.172,-7.745 z m 416.415,-138.937 c -38.444,42.413 -85.615,78.084 -140.298,103.914 l 58.996,136.006 c 60.974,-28.199 114.99,-65.437 161.176,-109.496 -3.356,-11.173 -7.404,-22.252 -12.16,-33.216 -16.382,-37.767 -39.646,-70.44 -67.714,-97.208 z m -330.414,147.004 c 0.824,37.592 8.822,75.62 24.686,112.192 5.218,12.029 11.143,23.528 17.689,34.497 63.289,-4.675 126.855,-19.573 188.464,-45.644 l -58.996,-136.005 c -56.106,23.546 -114.414,34.797 -171.843,34.96 z m 490.98,-77.607 c -17.708,23.575 -37.148,45.984 -58.285,66.977 13.813,53.395 13.051,108.143 -0.253,159.458 26.006,-18.816 50.575,-39.118 73.569,-60.798 10.46,-53.885 6.222,-111.129 -15.031,-165.637 z M 231.8,634.49586 c 26.134,52.205 65.819,93.712 112.853,122.113 30.959,-2.48 61.941,-6.926 92.825,-13.424 -46.589,-24.809 -87.222,-61.107 -117.145,-107.035 -29.674,1.595 -59.26,1.006 -88.533,-1.654 z m 472.75,-160.308 c -46.03,42.384 -99.245,78.383 -158.909,105.924 l 48.325,111.407 c 35.564,-16.245 69.269,-34.869 100.953,-55.78 0.01,-0.028 0.022,-0.055 0.032,-0.082 17.6,-51.05 21.568,-106.815 9.599,-161.469 z m -361.286,160.328 c 32.032,45.414 75.552,80.011 124.777,101.544 36.23,-9.243 72.177,-21.392 107.627,-36.467 l -48.326,-111.408 c -60.174,25.483 -122.203,40.671 -184.078,46.331 z m 442.245,-42.638 c -23.366,20.321 -48.107,39.362 -74.226,56.928 -16.589,44.807 -43.148,85.984 -78.136,120.005 75.092,-37.125 128.258,-102.144 152.362,-176.933 z m -408.99,181.497 c 70.12,31.632 152.104,36.354 228.878,7.474 -47.894,2.279 -95.23,-6.096 -138.659,-23.922 -29.965,7.37 -60.088,12.816 -90.219,16.448 z m 305.269,-105.713 c -25.466,15.472 -52.093,29.604 -79.838,42.263 l 18.803,43.348 c 25.422,-25.018 45.962,-54.065 61.035,-85.611 z m -181.729,80.329 c 32.784,10.14 67.398,14.745 102.371,13.297 l -18.803,-43.348 c -27.594,11.741 -55.47,21.772 -83.568,30.051 z"
   style="fill:#ffffff"
   inkscape:connector-curvature="0" />
  <path
   id="Red_path"
   d="m 500,50.010857 c -153.558,0 -289.22,77.047003 -370.437,194.563003 l 87,50.25 c 63.622,-87.708 166.876,-144.813 283.437,-144.813 116.561,0 219.814,57.105 283.438,144.813 l 87,-50.25 C 789.22,127.05786 653.558,50.010857 500,50.010857 z"
   style="fill:#ffffff"
   inkscape:connector-curvature="0" />
  <path
   id="Blue_path_left"
   d="m 82.188,332.76086 c -20.74,51.717 -32.188,108.15 -32.188,167.25 0,231.504 175.098,422.357 400,447.25 v -100.875 c -169.529,-24.297 -300,-170.159 -300,-346.375 0,-40.892 7.03,-80.136 19.938,-116.625 l -87.75,-50.625 z"
   style="fill:#ffffff"
   inkscape:connector-curvature="0" />
  <path
   id="Blue_path_right"
   d="m 917.813,332.76086 -87.75,50.625 c 12.906,36.489 19.937,75.733 19.937,116.625 0,176.215 -130.471,322.078 -300,346.375 v 100.875 c 224.903,-24.893 400,-215.746 400,-447.25 0,-59.1 -11.449,-115.533 -32.187,-167.25 z"
   style="fill:#f9f9f9"
   inkscape:connector-curvature="0" />
</svg>